<svg width="32" height="32" viewBox="0 0 32 32" fill="none" xmlns="http://www.w3.org/2000/svg">
<g clip-path="url(#clip0_231_27)">
<path d="M11.0663 23.7757C10.5534 23.2779 10.8208 23.4182 9.58357 23.0968C9.02222 22.9507 8.52875 22.67 8.08251 22.3337L5.40445 28.7067C5.14532 29.3237 5.62934 29.994 6.31523 29.9688L9.42538 29.8537L11.5645 32.0468C12.0367 32.5303 12.8655 32.3796 13.1246 31.7626L16.197 24.4512C15.5571 24.7972 14.847 25 14.1127 25C12.9617 25 11.8803 24.5652 11.0663 23.7757V23.7757ZM27.9292 28.7067L25.2512 22.3337C24.8049 22.6706 24.3114 22.9507 23.7501 23.0968C22.5064 23.42 22.7791 23.279 22.2673 23.7757C21.4533 24.5652 20.3714 25 19.2203 25C18.486 25 17.7759 24.7966 17.1361 24.4512L20.2085 31.7626C20.4676 32.3796 21.2969 32.5303 21.7685 32.0468L23.9083 29.8537L27.0184 29.9688C27.7043 29.994 28.1883 29.3232 27.9292 28.7067V28.7067ZM20.8578 22.4792C21.7597 21.5884 21.863 21.6651 23.1474 21.3254C23.9673 21.1083 24.6083 20.4752 24.8279 19.6651C25.2695 18.0381 25.1549 18.2346 26.3597 17.0441C26.96 16.4511 27.1943 15.5866 26.9747 14.7765C26.5338 13.1506 26.5332 13.3775 26.9747 11.7499C27.1943 10.9398 26.96 10.0753 26.3597 9.48231C25.1549 8.29182 25.2695 8.48775 24.8279 6.86127C24.6083 6.05118 23.9673 5.41812 23.1474 5.20099C21.5017 4.76501 21.7001 4.87902 20.4942 3.68795C19.8938 3.09499 19.0185 2.86296 18.1986 3.0801C16.5535 3.5155 16.7831 3.51608 15.1351 3.0801C14.3152 2.86296 13.4398 3.09442 12.8395 3.68795C11.6348 4.87845 11.8331 4.76501 10.1868 5.20099C9.36694 5.41812 8.7259 6.05118 8.50632 6.86127C8.06539 8.48775 8.17931 8.29182 6.97457 9.48231C6.37426 10.0753 6.13933 10.9398 6.3595 11.7499C6.80044 13.3746 6.80103 13.1478 6.3595 14.776C6.13992 15.586 6.37426 16.4506 6.97457 17.0441C8.17931 18.2346 8.0648 18.0381 8.50632 19.6651C8.7259 20.4752 9.36694 21.1083 10.1868 21.3254C11.5079 21.6749 11.6064 21.6199 12.4759 22.4792C13.2568 23.2509 14.4734 23.389 15.4119 22.8127C15.7872 22.5814 16.2226 22.4586 16.6671 22.4586C17.1117 22.4586 17.547 22.5814 17.9223 22.8127C18.8603 23.389 20.0768 23.2509 20.8578 22.4792ZM11.0982 13.0813C11.0982 10.0432 13.5915 7.58027 16.6668 7.58027C19.7421 7.58027 22.2355 10.0432 22.2355 13.0813C22.2355 16.1194 19.7421 18.5823 16.6668 18.5823C13.5915 18.5823 11.0982 16.1194 11.0982 13.0813V13.0813Z" fill="#3709FF"/>
</g>
<defs>
<clipPath id="clip0_231_27">
<rect width="32" height="32" fill="white"/>
</clipPath>
</defs>
</svg>
