<svg width="24" height="24" viewBox="0 0 24 24" fill="none" xmlns="http://www.w3.org/2000/svg">
<path d="M11.0002 5.99997H14.0002L17.2902 2.69997C17.3832 2.60624 17.4938 2.53185 17.6156 2.48108C17.7375 2.43031 17.8682 2.40417 18.0002 2.40417C18.1322 2.40417 18.2629 2.43031 18.3848 2.48108C18.5067 2.53185 18.6173 2.60624 18.7102 2.69997L21.2902 5.28997C21.4765 5.47734 21.581 5.73079 21.581 5.99497C21.581 6.25916 21.4765 6.51261 21.2902 6.69997L19.0002 8.99997H11.0002V11C11.0002 11.2652 10.8949 11.5195 10.7073 11.7071C10.5198 11.8946 10.2654 12 10.0002 12C9.73501 12 9.48066 11.8946 9.29312 11.7071C9.10558 11.5195 9.00023 11.2652 9.00023 11V7.99997C9.00023 7.46954 9.21094 6.96083 9.58601 6.58576C9.96109 6.21069 10.4698 5.99997 11.0002 5.99997ZM5.00023 11V15L2.71023 17.29C2.52398 17.4773 2.41943 17.7308 2.41943 17.995C2.41943 18.2592 2.52398 18.5126 2.71023 18.7L5.29023 21.29C5.38319 21.3837 5.49379 21.4581 5.61565 21.5089C5.73751 21.5596 5.86821 21.5858 6.00023 21.5858C6.13224 21.5858 6.26294 21.5596 6.3848 21.5089C6.50666 21.4581 6.61726 21.3837 6.71023 21.29L11.0002 17H15.0002C15.2654 17 15.5198 16.8946 15.7073 16.7071C15.8949 16.5195 16.0002 16.2652 16.0002 16V15H17.0002C17.2654 15 17.5198 14.8946 17.7073 14.7071C17.8949 14.5195 18.0002 14.2652 18.0002 14V13H19.0002C19.2654 13 19.5198 12.8946 19.7073 12.7071C19.8949 12.5195 20.0002 12.2652 20.0002 12V11H13.0002V12C13.0002 12.5304 12.7895 13.0391 12.4144 13.4142C12.0394 13.7893 11.5307 14 11.0002 14H9.00023C8.46979 14 7.96109 13.7893 7.58601 13.4142C7.21094 13.0391 7.00023 12.5304 7.00023 12V8.99997L5.00023 11Z" fill="#3709FF"/>
</svg>
