<svg width="32" height="32" viewBox="0 0 32 32" fill="none" xmlns="http://www.w3.org/2000/svg">
<path d="M13.3336 18.1334L21.2002 10.2667C21.4447 10.0222 21.7558 9.90002 22.1336 9.90002C22.5113 9.90002 22.8224 10.0222 23.0669 10.2667C23.3113 10.5111 23.4336 10.8222 23.4336 11.2C23.4336 11.5778 23.3113 11.8889 23.0669 12.1334L14.2669 20.9334C14.0002 21.2 13.6891 21.3334 13.3336 21.3334C12.978 21.3334 12.6669 21.2 12.4002 20.9334L8.93356 17.4667C8.68912 17.2222 8.56689 16.9111 8.56689 16.5334C8.56689 16.1556 8.68912 15.8445 8.93356 15.6C9.17801 15.3556 9.48912 15.2334 9.86689 15.2334C10.2447 15.2334 10.5558 15.3556 10.8002 15.6L13.3336 18.1334Z" fill="#939393"/>
</svg>
