<svg width="32" height="32" viewBox="0 0 32 32" fill="none" xmlns="http://www.w3.org/2000/svg">
<path d="M13.3333 4.66667C12.9556 4.66667 12.6391 4.53867 12.384 4.28267C12.128 4.02756 12 3.71111 12 3.33333C12 2.95556 12.128 2.63867 12.384 2.38267C12.6391 2.12756 12.9556 2 13.3333 2H18.6667C19.0444 2 19.3613 2.12756 19.6173 2.38267C19.8724 2.63867 20 2.95556 20 3.33333C20 3.71111 19.8724 4.02756 19.6173 4.28267C19.3613 4.53867 19.0444 4.66667 18.6667 4.66667H13.3333ZM16 19.3333C16.3778 19.3333 16.6947 19.2053 16.9507 18.9493C17.2058 18.6942 17.3333 18.3778 17.3333 18V12.6667C17.3333 12.2889 17.2058 11.972 16.9507 11.716C16.6947 11.4609 16.3778 11.3333 16 11.3333C15.6222 11.3333 15.3058 11.4609 15.0507 11.716C14.7947 11.972 14.6667 12.2889 14.6667 12.6667V18C14.6667 18.3778 14.7947 18.6942 15.0507 18.9493C15.3058 19.2053 15.6222 19.3333 16 19.3333ZM16 30C14.3556 30 12.8053 29.6836 11.3493 29.0507C9.89422 28.4169 8.62222 27.5556 7.53333 26.4667C6.44444 25.3778 5.58311 24.1058 4.94933 22.6507C4.31644 21.1947 4 19.6444 4 18C4 16.3556 4.31644 14.8053 4.94933 13.3493C5.58311 11.8942 6.44444 10.6222 7.53333 9.53333C8.62222 8.44444 9.89422 7.58356 11.3493 6.95067C12.8053 6.31689 14.3556 6 16 6C17.3778 6 18.7 6.22222 19.9667 6.66667C21.2333 7.11111 22.4222 7.75556 23.5333 8.6L24.5 7.63333C24.7444 7.38889 25.0444 7.26667 25.4 7.26667C25.7556 7.26667 26.0667 7.4 26.3333 7.66667C26.5778 7.91111 26.7 8.22222 26.7 8.6C26.7 8.97778 26.5778 9.28889 26.3333 9.53333L25.4 10.4667C26.2444 11.5778 26.8889 12.7667 27.3333 14.0333C27.7778 15.3 28 16.6222 28 18C28 19.6444 27.6836 21.1947 27.0507 22.6507C26.4169 24.1058 25.5556 25.3778 24.4667 26.4667C23.3778 27.5556 22.1058 28.4169 20.6507 29.0507C19.1947 29.6836 17.6444 30 16 30Z" fill="#3709FF"/>
</svg>
