<svg width="32" height="32" viewBox="0 0 32 32" fill="none" xmlns="http://www.w3.org/2000/svg">
<g clip-path="url(#clip0_231_29)">
<path d="M28.5773 6.48131L20.5773 27.148C20.4981 27.3527 20.3697 27.5347 20.2034 27.6778C20.037 27.821 19.8379 27.9208 19.6237 27.9686C19.4095 28.0163 19.1869 28.0105 18.9755 27.9515C18.7641 27.8926 18.5705 27.7823 18.4119 27.6306L13.9026 23.3173L11.1373 26.0813C11.044 26.1743 10.9252 26.2376 10.7959 26.2632C10.6667 26.2887 10.5328 26.2754 10.4111 26.2249C10.2894 26.1744 10.1854 26.089 10.1122 25.9794C10.039 25.8699 9.99996 25.7411 9.99993 25.6093V19.584L3.0786 12.964C2.90687 12.7997 2.78218 12.5925 2.71743 12.3638C2.65268 12.1351 2.65023 11.8933 2.71033 11.6634C2.77043 11.4334 2.8909 11.2237 3.05927 11.056C3.22763 10.8882 3.43777 10.7686 3.66793 10.7093L27.0013 4.70931C27.2385 4.64854 27.4879 4.65428 27.722 4.72588C27.9562 4.79749 28.1661 4.93221 28.3288 5.11526C28.4915 5.29831 28.6006 5.52262 28.6442 5.76358C28.6878 6.00455 28.6642 6.25287 28.5759 6.48131H28.5773ZM25.3333 8.00131L10.7093 17.536L13.0226 19.7493L25.3333 7.99998V8.00131Z" fill="#3709FF"/>
</g>
<defs>
<clipPath id="clip0_231_29">
<rect width="32" height="32" fill="white"/>
</clipPath>
</defs>
</svg>
