<svg width="24" height="24" viewBox="0 0 24 24" fill="none" xmlns="http://www.w3.org/2000/svg">
<path d="M9.6 15.6394L8.4 14.4394C7.6 14.2394 6.4 14.3394 5.7 15.4394C4.9 16.5394 5.4 18.2394 4 20.0394C4 20.0394 7.5 20.0394 8.8 18.7394C10 17.5394 10 16.5394 9.8 15.7394L9.6 15.6394ZM9.8 12.1394C9.6 12.4394 9.3 12.8394 9.1 13.1394C9.1 13.3394 9 13.4394 8.9 13.5394L10.4 15.0394C10.5 14.9394 10.7 14.8394 10.8 14.7394C11.1 14.5394 11.5 14.3394 11.8 14.0394C12.2 14.0394 12.4 13.8394 12.6 13.6394L10.4 11.4394C10.2 11.6394 10 11.8394 9.8 12.1394ZM19.8 4.23939C19.5 3.93939 19.1 3.93939 18.8 4.13939C18.8 4.13939 15.8 6.63939 12.9 9.23939C12.5 9.63939 12.2 9.93939 11.8 10.2394C11.6 10.4394 11.4 10.6394 11.2 10.7394L13.3 12.8394C13.5 12.6394 13.7 12.4394 13.8 12.1394C14.1 11.7394 14.4 11.4394 14.7 11.0394C17.2 8.03939 19.8 5.13939 19.8 5.13939C20.1 4.93939 20.1 4.53939 19.8 4.23939Z" fill="#3709FF"/>
</svg>
