<svg width="32" height="32" viewBox="0 0 32 32" fill="none" xmlns="http://www.w3.org/2000/svg">
<path d="M21.3332 24.3334V27.0001H2.6665V24.3334C2.6665 24.3334 2.6665 19.0001 11.9998 19.0001C21.3332 19.0001 21.3332 24.3334 21.3332 24.3334ZM16.6665 11.6667C16.6665 10.7438 16.3928 9.84151 15.88 9.07408C15.3672 8.30665 14.6384 7.70851 13.7857 7.3553C12.933 7.00209 11.9947 6.90967 11.0894 7.08974C10.1842 7.2698 9.35265 7.71426 8.70001 8.36691C8.04736 9.01955 7.6029 9.85107 7.42284 10.7563C7.24277 11.6616 7.33519 12.5999 7.6884 13.4526C8.04161 14.3053 8.63975 15.0341 9.40718 15.5469C10.1746 16.0597 11.0769 16.3334 11.9998 16.3334C13.2375 16.3334 14.4245 15.8417 15.2997 14.9666C16.1748 14.0914 16.6665 12.9044 16.6665 11.6667M21.2532 19.0001C22.0728 19.6344 22.7435 20.4406 23.2181 21.3621C23.6926 22.2835 23.9595 23.2977 23.9998 24.3334V27.0001H29.3332V24.3334C29.3332 24.3334 29.3332 19.4934 21.2532 19.0001M19.9998 7.00007C19.0821 6.99496 18.1845 7.26934 17.4265 7.78674C18.2364 8.91839 18.6719 10.2751 18.6719 11.6667C18.6719 13.0584 18.2364 14.4151 17.4265 15.5467C18.1845 16.0641 19.0821 16.3385 19.9998 16.3334C21.2375 16.3334 22.4245 15.8417 23.2997 14.9666C24.1748 14.0914 24.6665 12.9044 24.6665 11.6667C24.6665 10.4291 24.1748 9.24208 23.2997 8.36691C22.4245 7.49174 21.2375 7.00007 19.9998 7.00007V7.00007Z" fill="#3709FF"/>
</svg>
