<svg width="32" height="32" viewBox="0 0 32 32" fill="none" xmlns="http://www.w3.org/2000/svg">
<path fill-rule="evenodd" clip-rule="evenodd" d="M8 5.66667C8 5.48986 8.07024 5.32029 8.19526 5.19526C8.32029 5.07024 8.48986 5 8.66667 5H23.3333C23.5101 5 23.6797 5.07024 23.8047 5.19526C23.9298 5.32029 24 5.48986 24 5.66667V6.33333H27.3333C27.5101 6.33333 27.6797 6.40357 27.8047 6.5286C27.9298 6.65362 28 6.82319 28 7V11C28 11.8841 27.6488 12.7319 27.0237 13.357C26.3986 13.9821 25.5507 14.3333 24.6667 14.3333H23.5447C23.0682 15.6781 22.2412 16.8712 21.1492 17.7893C20.0573 18.7075 18.7399 19.3174 17.3333 19.556V23.6667H21.3333C21.5101 23.6667 21.6797 23.7369 21.8047 23.8619C21.9298 23.987 22 24.1565 22 24.3333V28.3333C22 28.5101 21.9298 28.6797 21.8047 28.8047C21.6797 28.9298 21.5101 29 21.3333 29H10.6667C10.4899 29 10.3203 28.9298 10.1953 28.8047C10.0702 28.6797 10 28.5101 10 28.3333V24.3333C10 24.1565 10.0702 23.987 10.1953 23.8619C10.3203 23.7369 10.4899 23.6667 10.6667 23.6667H14.6667V19.556C13.2601 19.3174 11.9427 18.7075 10.8508 17.7893C9.75882 16.8712 8.93185 15.6781 8.45533 14.3333H7.33333C6.44928 14.3333 5.60143 13.9821 4.97631 13.357C4.35119 12.7319 4 11.8841 4 11V7C4 6.82319 4.07024 6.65362 4.19526 6.5286C4.32029 6.40357 4.48986 6.33333 4.66667 6.33333H8V5.66667ZM24 11.6667V7.66667H26.6667V11C26.6667 11.5304 26.456 12.0391 26.0809 12.4142C25.7058 12.7893 25.1971 13 24.6667 13H24V11.6667ZM8 7.66667H5.33333V11C5.33333 11.5304 5.54405 12.0391 5.91912 12.4142C6.29419 12.7893 6.8029 13 7.33333 13H8V7.66667Z" fill="#3709FF"/>
</svg>
